# xmcd CD database file
#
# Track frame offsets:
#	150
#	18217
#	33614
#	47090
#	65592
#	81351
#	98923
#	117023
#	136880
#	157193
#	174758
#	195578
#	213424
#	235117
#	251800
#	273893
#	290697
#	309052
#	324428
#	337428
#
# Disc length: 4725 seconds
#
# Revision: 0
# Processed by: cddbd v1.5.1PL2 Copyright (c) Steve Scherf et al.
# Submitted via: CDex 1.40Beta8
#
DISCID=1f127314
DTITLE=Various Artist - TMC HP200625 
DYEAR=2006
DGENRE=Country
TTITLE0=Dian Diaz - No More Tears
TTITLE1=Lionel Richie - I Call It Love
TTITLE2=Aly and AJ- Chemicals React
TTITLE3=Beyonce F. Jay-Z - Deja Vu
TTITLE4=Janet Jackson F. Nelly - Call On Me
TTITLE5=Luther Vandross - Shine 
TTITLE6=Pharrell F. Kanye West - Number One
TTITLE7=Shawnna F. Smoke - Damn
TTITLE8=LL Cool J F. Lloyd Banks - Bump This 
TTITLE9=Blue Country - Firecrackers And Ferris Wheels
TTITLE10=Rascal Flatts - Life Is A Highway
TTITLE11=Lonestar - Mountains
TTITLE12=Avenged Sevenfold - Seize The Day 
TTITLE13=Staind - King Of All Excuses 
TTITLE14=Muse - Knights Of Cydonia 
TTITLE15=Evans Blue - Over
TTITLE16=India - Solamente Una Noche [Rmx]
TTITLE17=Bob Sinclair F. Steve Edwards - World, Hold On [Rmx]
TTITLE18=Joey Negro - Make A Move On Me [Rmx]
TTITLE19=Nichole Nordeman - Real To Me 
EXTD=YEAR: 2006 ID3G: 2
EXTT0=
EXTT1=
EXTT2=
EXTT3=
EXTT4=
EXTT5=
EXTT6=
EXTT7=
EXTT8=
EXTT9=
EXTT10=
EXTT11=
EXTT12=
EXTT13=
EXTT14=
EXTT15=
EXTT16=
EXTT17=
EXTT18=
EXTT19=
PLAYORDER=
